<svg width="38" height="38" viewBox="0 0 38 38" fill="none" xmlns="http://www.w3.org/2000/svg">
<g id="Icon / envelope">
<path id="icon" d="M30.9333 6.18665H6.1866C4.48062 6.18665 3.09326 7.57401 3.09326 9.27998V27.84C3.09326 29.5459 4.48062 30.9333 6.1866 30.9333H30.9333C32.6392 30.9333 34.0266 29.5459 34.0266 27.84V9.27998C34.0266 7.57401 32.6392 6.18665 30.9333 6.18665ZM30.9333 9.27998V10.0703L18.5599 19.6952L6.1866 10.0719V9.27998H30.9333ZM6.1866 27.84V13.988L17.6103 22.8736C17.8811 23.0864 18.2155 23.202 18.5599 23.202C18.9043 23.202 19.2387 23.0864 19.5096 22.8736L30.9333 13.988L30.9364 27.84H6.1866Z" fill="url(#paint0_linear_415_728)"/>
</g>
<defs>
<linearGradient id="paint0_linear_415_728" x1="18.5599" y1="6.18665" x2="18.5599" y2="30.9333" gradientUnits="userSpaceOnUse">
<stop stop-color="#1777BA"/>
<stop offset="1" stop-color="#8FAFF1"/>
</linearGradient>
</defs>
</svg>
