<svg width="38" height="38" viewBox="0 0 38 38" fill="none" xmlns="http://www.w3.org/2000/svg">
<g id="Icon / phone">
<path id="icon" d="M27.3867 19.013C27.2432 18.8693 27.0728 18.7552 26.8851 18.6774C26.6975 18.5996 26.4964 18.5596 26.2932 18.5596C26.0901 18.5596 25.889 18.5996 25.7013 18.6774C25.5137 18.7552 25.3433 18.8693 25.1997 19.013L22.7344 21.4784C21.5914 21.1382 19.4585 20.3648 18.1067 19.013C16.7549 17.6613 15.9816 15.5284 15.6413 14.3854L18.1067 11.92C18.2505 11.7765 18.3645 11.6061 18.4423 11.4184C18.5202 11.2308 18.5602 11.0297 18.5602 10.8265C18.5602 10.6234 18.5202 10.4223 18.4423 10.2346C18.3645 10.047 18.2505 9.87656 18.1067 9.73305L11.9201 3.54638C11.7766 3.40262 11.6061 3.28858 11.4185 3.21076C11.2308 3.13295 11.0297 3.0929 10.8266 3.0929C10.6234 3.0929 10.4223 3.13295 10.2347 3.21076C10.047 3.28858 9.87659 3.40262 9.73308 3.54638L5.53852 7.74094C4.95078 8.32867 4.6198 9.13603 4.63217 9.96041C4.66774 12.1629 5.25084 19.8127 11.2797 25.8416C17.3087 31.8705 24.9585 32.452 27.1625 32.4892H27.2058C28.0224 32.4892 28.7942 32.1674 29.3788 31.5828L33.5734 27.3882C33.7172 27.2447 33.8312 27.0743 33.909 26.8867C33.9868 26.699 34.0269 26.4979 34.0269 26.2948C34.0269 26.0916 33.9868 25.8905 33.909 25.7029C33.8312 25.5152 33.7172 25.3448 33.5734 25.2013L27.3867 19.013ZM27.1903 29.3943C25.2601 29.3618 18.6558 28.8437 13.4667 23.653C8.26065 18.447 7.75644 11.8195 7.7255 9.92793L10.8266 6.82686L14.8263 10.8265L12.8264 12.8264C12.6446 13.008 12.511 13.2321 12.4375 13.4784C12.3641 13.7247 12.3531 13.9854 12.4057 14.2369C12.4428 14.4148 13.3507 18.6326 15.9182 21.2C18.4857 23.7675 22.7034 24.6754 22.8813 24.7125C23.1327 24.7666 23.3937 24.7565 23.6402 24.6833C23.8867 24.61 24.1108 24.4759 24.2918 24.2934L26.2932 22.2935L30.2929 26.2932L27.1903 29.3943Z" fill="url(#paint0_linear_415_740)"/>
</g>
<defs>
<linearGradient id="paint0_linear_415_740" x1="19.3294" y1="3.0929" x2="19.3294" y2="32.4892" gradientUnits="userSpaceOnUse">
<stop stop-color="#1777BA"/>
<stop offset="1" stop-color="#8FAFF1"/>
</linearGradient>
</defs>
</svg>
