<svg width="38" height="38" viewBox="0 0 38 38" fill="none" xmlns="http://www.w3.org/2000/svg">
<g id="Icon / map">
<g id="icon">
<path d="M18.5604 21.6534C21.9724 21.6534 24.7471 18.8787 24.7471 15.4667C24.7471 12.0548 21.9724 9.28005 18.5604 9.28005C15.1485 9.28005 12.3738 12.0548 12.3738 15.4667C12.3738 18.8787 15.1485 21.6534 18.5604 21.6534ZM18.5604 12.3734C20.2664 12.3734 21.6538 13.7607 21.6538 15.4667C21.6538 17.1727 20.2664 18.5601 18.5604 18.5601C16.8545 18.5601 15.4671 17.1727 15.4671 15.4667C15.4671 13.7607 16.8545 12.3734 18.5604 12.3734ZM17.6634 33.739C17.9252 33.926 18.2388 34.0265 18.5605 34.0265C18.8821 34.0265 19.1958 33.926 19.4575 33.739C19.9277 33.4065 30.9787 25.4273 30.9338 15.4667C30.9338 8.64437 25.3828 3.09338 18.5605 3.09338C11.7381 3.09338 6.18715 8.64437 6.18715 15.459C6.14229 25.4273 17.1932 33.4065 17.6634 33.739ZM18.5605 6.18672C23.6784 6.18672 27.8405 10.3488 27.8405 15.4745C27.873 22.3386 21.0537 28.502 18.5605 30.5235C16.0688 28.5005 9.248 22.3355 9.28048 15.4667C9.28048 10.3488 13.4426 6.18672 18.5605 6.18672Z" fill="url(#paint0_linear_415_741)"/>
<path d="M18.5604 21.6534C21.9724 21.6534 24.7471 18.8787 24.7471 15.4667C24.7471 12.0548 21.9724 9.28005 18.5604 9.28005C15.1485 9.28005 12.3738 12.0548 12.3738 15.4667C12.3738 18.8787 15.1485 21.6534 18.5604 21.6534ZM18.5604 12.3734C20.2664 12.3734 21.6538 13.7607 21.6538 15.4667C21.6538 17.1727 20.2664 18.5601 18.5604 18.5601C16.8545 18.5601 15.4671 17.1727 15.4671 15.4667C15.4671 13.7607 16.8545 12.3734 18.5604 12.3734ZM17.6634 33.739C17.9252 33.926 18.2388 34.0265 18.5605 34.0265C18.8821 34.0265 19.1958 33.926 19.4575 33.739C19.9277 33.4065 30.9787 25.4273 30.9338 15.4667C30.9338 8.64437 25.3828 3.09338 18.5605 3.09338C11.7381 3.09338 6.18715 8.64437 6.18715 15.459C6.14229 25.4273 17.1932 33.4065 17.6634 33.739ZM18.5605 6.18672C23.6784 6.18672 27.8405 10.3488 27.8405 15.4745C27.873 22.3386 21.0537 28.502 18.5605 30.5235C16.0688 28.5005 9.248 22.3355 9.28048 15.4667C9.28048 10.3488 13.4426 6.18672 18.5605 6.18672Z" fill="url(#paint1_linear_415_741)"/>
</g>
</g>
<defs>
<linearGradient id="paint0_linear_415_741" x1="18.5605" y1="3.09338" x2="18.5605" y2="34.0265" gradientUnits="userSpaceOnUse">
<stop stop-color="#1777BA"/>
<stop offset="1" stop-color="#8FAFF1"/>
</linearGradient>
<linearGradient id="paint1_linear_415_741" x1="18.5605" y1="3.09338" x2="18.5605" y2="34.0265" gradientUnits="userSpaceOnUse">
<stop stop-color="#1777BA"/>
<stop offset="1" stop-color="#8FAFF1"/>
</linearGradient>
</defs>
</svg>
