<svg
                  xmlns="http://www.w3.org/2000/svg"
                  width="38"
                  height="36"
                  viewBox="0 0 38 36"
                  fill="none"
                >
                  <path
                    d="M30.207 12.4874C30.7711 10.7999 29.2125 9.19679 27.4313 9.55538C25.7984 9.89288 25.2937 7.5796 26.9043 7.24913C30.6227 6.48273 33.7547 9.85773 32.582 13.2116C32.0773 14.7023 29.7023 13.971 30.207 12.4874ZM15.9422 31.4085C8.05273 31.4085 0 27.7944 0 21.8249C0 18.7101 2.07813 15.1171 5.66289 11.721C13.0625 4.71085 20.7441 4.62648 18.5473 11.3202C18.2504 12.2413 19.4602 11.721 19.4602 11.7421C25.3605 9.3796 29.8879 10.5609 27.9211 15.3562C27.6465 16.0171 28.0027 16.1226 28.5371 16.2773C38.6086 19.2515 31.1199 31.4085 15.9422 31.4085ZM26.6074 21.1218C26.2066 17.2054 20.7813 14.5124 14.4801 15.096C8.18633 15.7007 3.43633 19.3359 3.83711 23.2523C4.23789 27.1687 9.66328 29.8616 15.9645 29.278C22.2582 28.6733 27.0082 25.0382 26.6074 21.1218ZM25.8207 2.46788C23.8984 2.86163 24.5738 5.54054 26.4367 5.16085C31.8027 4.0921 36.4414 8.87335 34.727 13.8796C34.1777 15.5812 36.8867 16.4812 37.5027 14.7234C39.8703 7.70616 33.4133 0.949132 25.8207 2.46788ZM19.9945 24.3351C18.7254 27.0632 15.0367 28.5538 11.8973 27.5905C8.86914 26.6694 7.59258 23.8359 8.90625 21.2835C10.2199 18.7944 13.5895 17.3882 16.5805 18.1124C19.6977 18.8718 21.2637 21.6421 19.9945 24.3351ZM13.5895 22.2257C12.632 21.846 11.3629 22.2468 10.7691 23.1327C10.1531 24.0398 10.45 25.1015 11.4074 25.5233C12.3797 25.9452 13.6934 25.5444 14.3094 24.6163C14.9031 23.6952 14.584 22.6265 13.5895 22.2257ZM16.009 21.2835C15.6305 21.164 15.1629 21.3257 14.9477 21.6632C14.7324 22.0218 14.8438 22.4085 15.2223 22.5702C15.6008 22.7108 16.0906 22.5491 16.3059 22.1905C16.5137 21.8249 16.3875 21.4241 16.009 21.2835Z"
                    fill="black"
                  />
                  <path
                    d="M30.207 12.4874C30.7711 10.7999 29.2125 9.19679 27.4313 9.55538C25.7984 9.89288 25.2937 7.5796 26.9043 7.24913C30.6227 6.48273 33.7547 9.85773 32.582 13.2116C32.0773 14.7023 29.7023 13.971 30.207 12.4874ZM15.9422 31.4085C8.05273 31.4085 0 27.7944 0 21.8249C0 18.7101 2.07813 15.1171 5.66289 11.721C13.0625 4.71085 20.7441 4.62648 18.5473 11.3202C18.2504 12.2413 19.4602 11.721 19.4602 11.7421C25.3605 9.3796 29.8879 10.5609 27.9211 15.3562C27.6465 16.0171 28.0027 16.1226 28.5371 16.2773C38.6086 19.2515 31.1199 31.4085 15.9422 31.4085ZM26.6074 21.1218C26.2066 17.2054 20.7813 14.5124 14.4801 15.096C8.18633 15.7007 3.43633 19.3359 3.83711 23.2523C4.23789 27.1687 9.66328 29.8616 15.9645 29.278C22.2582 28.6733 27.0082 25.0382 26.6074 21.1218ZM25.8207 2.46788C23.8984 2.86163 24.5738 5.54054 26.4367 5.16085C31.8027 4.0921 36.4414 8.87335 34.727 13.8796C34.1777 15.5812 36.8867 16.4812 37.5027 14.7234C39.8703 7.70616 33.4133 0.949132 25.8207 2.46788ZM19.9945 24.3351C18.7254 27.0632 15.0367 28.5538 11.8973 27.5905C8.86914 26.6694 7.59258 23.8359 8.90625 21.2835C10.2199 18.7944 13.5895 17.3882 16.5805 18.1124C19.6977 18.8718 21.2637 21.6421 19.9945 24.3351ZM13.5895 22.2257C12.632 21.846 11.3629 22.2468 10.7691 23.1327C10.1531 24.0398 10.45 25.1015 11.4074 25.5233C12.3797 25.9452 13.6934 25.5444 14.3094 24.6163C14.9031 23.6952 14.584 22.6265 13.5895 22.2257ZM16.009 21.2835C15.6305 21.164 15.1629 21.3257 14.9477 21.6632C14.7324 22.0218 14.8438 22.4085 15.2223 22.5702C15.6008 22.7108 16.0906 22.5491 16.3059 22.1905C16.5137 21.8249 16.3875 21.4241 16.009 21.2835Z"
                    fill="url(#paint0_linear_761_763)"
                  />
                  <defs>
                    <linearGradient
                      id="paint0_linear_761_763"
                      x1="18.9998"
                      y1="2.2522"
                      x2="18.9998"
                      y2="31.4085"
                      gradientUnits="userSpaceOnUse"
                    >
                      <stop stop-color="#1B79BC" />
                      <stop offset="1" stop-color="#A2B3EE" />
                    </linearGradient>
                  </defs>
                </svg>