<svg
                xmlns="http://www.w3.org/2000/svg"
                width="36"
                height="32"
                viewBox="0 0 36 32"
                fill="none"
              >
                <path
                  d="M24.075 10.475C24.475 10.475 24.8625 10.4937 25.25 10.5437C24.2125 5.64375 18.9562 2 12.9812 2C6.28125 2 0.8125 6.55 0.8125 12.3375C0.8125 15.675 2.64375 18.4313 5.68125 20.5625L4.475 24.225L8.725 22.0938C10.25 22.3938 11.4625 22.7 12.9875 22.7C13.375 22.7 13.7438 22.6812 14.1313 22.65C13.8813 21.8437 13.7437 20.9875 13.7437 20.1C13.7375 14.7938 18.3 10.475 24.075 10.475ZM17.5438 7.16875C18.45 7.16875 19.0562 7.775 19.0562 8.69375C19.0562 9.6 18.45 10.2063 17.5438 10.2063C16.6188 10.2063 15.7125 9.6 15.7125 8.69375C15.7187 7.775 16.625 7.16875 17.5438 7.16875ZM9.01875 10.2063C8.1125 10.2063 7.1875 9.6 7.1875 8.69375C7.1875 7.76875 8.1125 7.16875 9.01875 7.16875C9.94375 7.16875 10.5437 7.775 10.5437 8.69375C10.5437 9.60625 9.94375 10.2063 9.01875 10.2063ZM35.1875 19.9625C35.1875 15.0937 30.3188 11.1313 24.85 11.1313C19.0563 11.1313 14.5125 15.0937 14.5125 19.9625C14.5125 24.8312 19.0625 28.7938 24.85 28.7938C26.0563 28.7938 27.2813 28.475 28.5125 28.175L31.85 30.0063L30.925 26.9688C33.375 25.1313 35.1875 22.7 35.1875 19.9625ZM21.4937 18.4312C20.8875 18.4312 20.2875 17.825 20.2875 17.2062C20.2875 16.6 20.8937 16 21.4937 16C22.4187 16 23.0187 16.6062 23.0187 17.2062C23.0187 17.8312 22.4125 18.4312 21.4937 18.4312ZM28.1875 18.4312C27.5813 18.4312 26.9813 17.825 26.9813 17.2062C26.9813 16.6 27.5875 16 28.1875 16C29.0938 16 29.7125 16.6062 29.7125 17.2062C29.7187 17.8312 29.0938 18.4312 28.1875 18.4312Z"
                  fill="black"
                />
                <path
                  d="M24.075 10.475C24.475 10.475 24.8625 10.4937 25.25 10.5437C24.2125 5.64375 18.9562 2 12.9812 2C6.28125 2 0.8125 6.55 0.8125 12.3375C0.8125 15.675 2.64375 18.4313 5.68125 20.5625L4.475 24.225L8.725 22.0938C10.25 22.3938 11.4625 22.7 12.9875 22.7C13.375 22.7 13.7438 22.6812 14.1313 22.65C13.8813 21.8437 13.7437 20.9875 13.7437 20.1C13.7375 14.7938 18.3 10.475 24.075 10.475ZM17.5438 7.16875C18.45 7.16875 19.0562 7.775 19.0562 8.69375C19.0562 9.6 18.45 10.2063 17.5438 10.2063C16.6188 10.2063 15.7125 9.6 15.7125 8.69375C15.7187 7.775 16.625 7.16875 17.5438 7.16875ZM9.01875 10.2063C8.1125 10.2063 7.1875 9.6 7.1875 8.69375C7.1875 7.76875 8.1125 7.16875 9.01875 7.16875C9.94375 7.16875 10.5437 7.775 10.5437 8.69375C10.5437 9.60625 9.94375 10.2063 9.01875 10.2063ZM35.1875 19.9625C35.1875 15.0937 30.3188 11.1313 24.85 11.1313C19.0563 11.1313 14.5125 15.0937 14.5125 19.9625C14.5125 24.8312 19.0625 28.7938 24.85 28.7938C26.0563 28.7938 27.2813 28.475 28.5125 28.175L31.85 30.0063L30.925 26.9688C33.375 25.1313 35.1875 22.7 35.1875 19.9625ZM21.4937 18.4312C20.8875 18.4312 20.2875 17.825 20.2875 17.2062C20.2875 16.6 20.8937 16 21.4937 16C22.4187 16 23.0187 16.6062 23.0187 17.2062C23.0187 17.8312 22.4125 18.4312 21.4937 18.4312ZM28.1875 18.4312C27.5813 18.4312 26.9813 17.825 26.9813 17.2062C26.9813 16.6 27.5875 16 28.1875 16C29.0938 16 29.7125 16.6062 29.7125 17.2062C29.7187 17.8312 29.0938 18.4312 28.1875 18.4312Z"
                  fill="url(#paint0_linear_761_765)"
                />
                <defs>
                  <linearGradient
                    id="paint0_linear_761_765"
                    x1="18"
                    y1="2"
                    x2="18"
                    y2="30.0063"
                    gradientUnits="userSpaceOnUse"
                  >
                    <stop stop-color="#1B79BC" />
                    <stop offset="1" stop-color="#A2B3EE" />
                  </linearGradient>
                </defs>
              </svg>